<svg xmlns="http://www.w3.org/2000/svg" xmlns:xlink="http://www.w3.org/1999/xlink" width="500" zoomAndPan="magnify" viewBox="0 0 375 374.999991" height="500" preserveAspectRatio="xMidYMid meet" version="1.0"><defs><clipPath id="bdd17d9fb8"><path d="M 185 115.226562 L 262.5 115.226562 L 262.5 197 L 185 197 Z M 185 115.226562 " clip-rule="nonzero"/></clipPath><clipPath id="1c3bd2804d"><path d="M 112.5 189 L 204 189 L 204 259.976562 L 112.5 259.976562 Z M 112.5 189 " clip-rule="nonzero"/></clipPath></defs><g clip-path="url(#bdd17d9fb8)"><path fill="#000000" d="M 224.058594 115.226562 C 202.820312 115.226562 185.722656 132.351562 185.722656 153.621094 L 185.722656 196.28125 L 196.371094 196.28125 L 196.371094 153.621094 C 196.371094 138.261719 208.71875 125.894531 224.058594 125.894531 C 239.398438 125.894531 251.746094 138.257812 251.746094 153.621094 L 251.746094 183.035156 L 262.394531 183.035156 L 262.394531 153.621094 C 262.394531 132.351562 245.296875 115.226562 224.058594 115.226562 Z M 224.058594 115.226562 " fill-opacity="1" fill-rule="evenodd"/></g><g clip-path="url(#1c3bd2804d)"><path fill="#000000" d="M 113.167969 189.785156 L 202.6875 189.785156 C 202.832031 189.785156 202.957031 189.835938 203.0625 189.941406 C 203.164062 190.042969 203.214844 190.167969 203.214844 190.316406 L 203.214844 259.46875 C 203.214844 259.613281 203.164062 259.738281 203.0625 259.84375 C 202.957031 259.945312 202.832031 259.996094 202.6875 259.996094 L 113.167969 259.996094 C 113.019531 259.996094 112.894531 259.945312 112.792969 259.84375 C 112.6875 259.738281 112.636719 259.613281 112.636719 259.46875 L 112.636719 190.316406 C 112.636719 190.167969 112.6875 190.042969 112.792969 189.941406 C 112.894531 189.835938 113.019531 189.785156 113.167969 189.785156 " fill-opacity="1" fill-rule="evenodd"/></g></svg>